# xmcd
#
# Track frame offsets:
# 150
# 4417
# 18987
# 35592
# 52090
# 66850
# 81417
# 100840
# 104375
# 120630
# 140422
# 147540
# 159835
# 176990
#
# Disc length: 2559 seconds
#
#
# Revision: 3
# Processed by: cddbd v1.5.1PL0 Copyright (c) Steve Scherf et al.
# Submitted via: FreeRIP 2.51 
#
DISCID=c709fd0e
DTITLE=Carlene Carter - Little Love Letters
DYEAR=1993
DGENRE=Country
TTITLE0=Little Love Letter #1
TTITLE1=Every Little Thing
TTITLE2=Wastin' Time With You
TTITLE3=Unbreakable Heart
TTITLE4=Sweet Meant To Be
TTITLE5=Nowhere Train
TTITLE6=Long Hard Fall
TTITLE7=Little Love Letter #2
TTITLE8=I Love You 'Cause I Want To
TTITLE9=World Of Miracles
TTITLE10=First Kiss
TTITLE11=Hallelujah In My Heart
TTITLE12=The Rain
TTITLE13=Heart Is Right
EXTD=
EXTT0=
EXTT1=
EXTT2=
EXTT3=
EXTT4=
EXTT5=
EXTT6=
EXTT7=
EXTT8=
EXTT9=
EXTT10=
EXTT11=
EXTT12=
EXTT13=
PLAYORDER=
